<svg id="coder-g" enable-background="new 0 0 300 300" height="512" viewBox="0 0 300 300" width="512" xmlns="http://www.w3.org/2000/svg"><g><circle cx="150" cy="142.828" fill="#eaeaea" r="92"/><g><path d="m118 110.828c0-19.882-16.118-36-36-36s-36 16.118-36 36c0 17.233 12.117 31.62 28.291 35.152l7.709 12.848 7.709-12.848c16.174-3.532 28.291-17.918 28.291-35.152z" fill="#fff"/><path d="m82 162.828c-1.404 0-2.707-.736-3.43-1.941l-6.848-11.414c-17.326-4.608-29.722-20.582-29.722-38.645 0-22.057 17.943-40 40-40s40 17.943 40 40c0 18.062-12.396 34.037-29.723 38.645l-6.848 11.414c-.722 1.205-2.025 1.941-3.429 1.941zm0-84c-17.645 0-32 14.355-32 32 0 14.922 10.574 28.062 25.145 31.244 1.076.236 2.01.904 2.576 1.85l4.279 7.133 4.279-7.133c.566-.945 1.5-1.613 2.576-1.85 14.571-3.181 25.145-16.322 25.145-31.244 0-17.644-14.356-32-32-32z" fill="#4c241d"/></g><g><path d="m195.548 86.828h28.904c16.319 0 29.548 14.206 29.548 31.73v76.27h-65.634c-12.352 0-22.366-10.753-22.366-24.018v-52.252c0-17.524 13.229-31.73 29.548-31.73z" fill="#ffce56"/><path d="m254 198.828h-65.635c-14.537 0-26.365-12.568-26.365-28.018v-52.252c0-19.701 15.049-35.73 33.547-35.73h28.904c18.498 0 33.549 16.029 33.549 35.73v76.27c0 2.209-1.791 4-4 4zm-58.453-108c-14.086 0-25.547 12.439-25.547 27.73v52.252c0 11.037 8.238 20.018 18.365 20.018h61.635v-72.27c0-15.291-11.461-27.73-25.549-27.73z" fill="#4c241d"/></g><g><path d="m158 258.828v-41.677c0-12.329 9.994-22.323 22.323-22.323h46.64c19.351 0 35.037 15.687 35.037 35.037v28.963" fill="#e66353"/><path d="m262 262.828c-2.209 0-4-1.791-4-4v-28.963c0-17.113-13.924-31.037-31.037-31.037h-46.641c-10.104 0-18.322 8.219-18.322 18.322v41.678c0 2.209-1.791 4-4 4s-4-1.791-4-4v-41.678c0-14.514 11.809-26.322 26.322-26.322h46.641c21.525 0 39.037 17.512 39.037 39.037v28.963c0 2.209-1.791 4-4 4z" fill="#4c241d"/></g><g><path d="m200 178.828c18.778 0 34-13.431 34-30v-30h-68v30c0 16.569 15.222 30 34 30z" fill="#ffded5"/><path d="m200 182.828c-20.953 0-38-15.252-38-34v-30c0-2.209 1.791-4 4-4h68c2.209 0 4 1.791 4 4v30c0 18.748-17.047 34-38 34zm-30-60v26c0 14.336 13.457 26 30 26s30-11.664 30-26v-26z" fill="#4c241d"/></g><g><path d="m202 158.828c-1.836 2.416-4.72 4-8 4-3.279 0-6.164-1.584-8-4z" fill="#ffded5"/><path d="m194 166.828c-4.414 0-8.49-2.033-11.186-5.58-.918-1.209-1.072-2.836-.398-4.197.676-1.361 2.064-2.223 3.584-2.223h16c1.52 0 2.908.861 3.584 2.223.674 1.361.52 2.988-.398 4.197-2.696 3.547-6.772 5.58-11.186 5.58z" fill="#4c241d"/></g><g><path d="m190 194.828v-16h20v16h8v2c0 9.941-8.059 18-18 18s-18-8.059-18-18v-2z" fill="#ffded5"/><path d="m200 218.828c-12.131 0-22-9.869-22-22v-2c0-2.209 1.791-4 4-4h4v-12c0-2.209 1.791-4 4-4h20c2.209 0 4 1.791 4 4v12h4c2.209 0 4 1.791 4 4v2c0 12.131-9.869 22-22 22zm-13.858-20c.973 6.775 6.816 12 13.857 12s12.885-5.225 13.857-12h-3.856c-2.209 0-4-1.791-4-4v-12h-12v12c0 2.209-1.791 4-4 4z" fill="#4c241d"/></g><g fill="#4c241d"><path d="m190 122.828c-2.209 0-4-1.791-4-4v-8c0-2.209 1.791-4 4-4s4 1.791 4 4v8c0 2.209-1.791 4-4 4z"/><circle cx="210" cy="138.828" r="4"/><circle cx="178" cy="138.828" r="4"/><path d="m234 262.828c-2.209 0-4-1.791-4-4v-24c0-2.209 1.791-4 4-4s4 1.791 4 4v24c0 2.209-1.791 4-4 4z"/><path d="m174 262.828c-2.209 0-4-1.791-4-4v-24c0-2.209 1.791-4 4-4s4 1.791 4 4v24c0 2.209-1.791 4-4 4z"/><path d="m166.344 56.484c-1.023 0-2.047-.391-2.828-1.172-1.562-1.562-1.562-4.094 0-5.656l11.312-11.312c1.562-1.562 4.094-1.562 5.656 0s1.562 4.094 0 5.656l-11.312 11.312c-.782.782-1.805 1.172-2.828 1.172z"/><path d="m177.656 56.484c-1.023 0-2.047-.391-2.828-1.172l-11.313-11.312c-1.562-1.562-1.562-4.094 0-5.656s4.094-1.562 5.656 0l11.312 11.312c1.562 1.562 1.562 4.094 0 5.656-.78.782-1.803 1.172-2.827 1.172z"/><circle cx="218" cy="60.828" r="4.529"/><circle cx="150" cy="76.828" r="4.529"/></g><g><path d="m197.999 258.828h-47.999v-12h55.999z" fill="#6b4f5b"/><path d="m198 262.828h-48c-2.209 0-4-1.791-4-4v-12c0-2.209 1.791-4 4-4h56c1.475 0 2.83.812 3.527 2.113.695 1.301.619 2.879-.199 4.105l-8 12c-.742 1.114-1.99 1.782-3.328 1.782zm-44-8h41.859l2.666-4h-44.525z" fill="#4c241d"/></g><g><path d="m38 258.828h116l-12-88h-116z" fill="#6b4f5b"/><path d="m154 262.828h-116c-2 0-3.693-1.479-3.963-3.459l-12-88c-.156-1.145.189-2.301.949-3.172.76-.869 1.859-1.369 3.014-1.369h116c2 0 3.693 1.479 3.963 3.459l12 88c.156 1.145-.189 2.301-.949 3.172-.76.869-1.86 1.369-3.014 1.369zm-112.508-8h107.926l-10.91-80h-107.926z" fill="#4c241d"/></g><g><circle cx="90" cy="214.828" fill="#b5a19c" r="8"/><path d="m90 226.828c-6.617 0-12-5.383-12-12s5.383-12 12-12 12 5.383 12 12-5.383 12-12 12zm0-16c-2.205 0-4 1.795-4 4s1.795 4 4 4 4-1.795 4-4-1.795-4-4-4z" fill="#4c241d"/></g><path d="m274 262.828h-104c-2.209 0-4-1.791-4-4s1.791-4 4-4h104c2.209 0 4 1.791 4 4s-1.791 4-4 4z" fill="#4c241d"/><path d="m94.004 122.828c-1.293 0-2.561-.625-3.332-1.781-1.225-1.838-.729-4.322 1.109-5.547l7.008-4.672-7.008-4.672c-1.838-1.225-2.334-3.709-1.109-5.547 1.223-1.84 3.707-2.338 5.547-1.109l12 8c1.113.742 1.781 1.99 1.781 3.328s-.668 2.586-1.781 3.328l-12 8c-.682.455-1.454.672-2.215.672z" fill="#4c241d"/><path d="m69.996 122.828c-.762 0-1.533-.217-2.215-.672l-12-8c-1.113-.742-1.781-1.99-1.781-3.328s.668-2.586 1.781-3.328l12-8c1.836-1.229 4.318-.73 5.547 1.109 1.225 1.838.729 4.322-1.109 5.547l-7.008 4.672 7.008 4.672c1.838 1.225 2.334 3.709 1.109 5.547-.772 1.156-2.039 1.781-3.332 1.781z" fill="#4c241d"/><path d="m78.004 134.828c-.26 0-.523-.025-.789-.078-2.166-.434-3.57-2.541-3.137-4.707l8-40c.43-2.164 2.535-3.574 4.707-3.137 2.166.434 3.57 2.541 3.137 4.707l-8 40c-.379 1.901-2.051 3.215-3.918 3.215z" fill="#4c241d"/></g></svg>